<svg id="Layer_1" data-name="Layer 1" xmlns="http://www.w3.org/2000/svg" viewBox="0 0 50 50"><defs><style>.cls-1,.cls-2{fill:none;stroke:#d7aaaa;}.cls-2{stroke-miterlimit:10;}</style></defs><title>kplogo</title><path class="cls-1" d="M9.07,1.24H23.13v29l10.4-12.06H43.1L31,32,42.16,48.75H33.53L23.25,33.29h-.13V48.75H9.07Z"/><path class="cls-2" d="M9.08,1.23H12V34.7h0a3.47,3.47,0,0,1,.49-.55,3.71,3.71,0,0,1,.71-.51,4.43,4.43,0,0,1,.89-.38,3.5,3.5,0,0,1,1-.15,5.24,5.24,0,0,1,2,.39,4.57,4.57,0,0,1,1.58,1.09,4.85,4.85,0,0,1,1,1.66,6.05,6.05,0,0,1,.36,2.11,6.4,6.4,0,0,1-.32,2,5.61,5.61,0,0,1-.92,1.72,4.49,4.49,0,0,1-1.45,1.2,4.12,4.12,0,0,1-1.94.45,5.38,5.38,0,0,1-1.83-.3,2.92,2.92,0,0,1-1.39-1h0v6.28H9.08ZM12,38.44a2.63,2.63,0,0,0,.66,1.86,2.39,2.39,0,0,0,1.85.71,2.39,2.39,0,0,0,1.85-.71,3,3,0,0,0,0-3.72,2.4,2.4,0,0,0-1.85-.71,2.4,2.4,0,0,0-1.85.71A2.63,2.63,0,0,0,12,38.44Z"/><path class="cls-2" d="M9.05,33.52h2.88v1.24h0a3.47,3.47,0,0,1,.49-.55,3.71,3.71,0,0,1,.71-.51,4.43,4.43,0,0,1,.89-.38,3.5,3.5,0,0,1,1-.15,5.24,5.24,0,0,1,2,.39,4.57,4.57,0,0,1,1.58,1.09,4.85,4.85,0,0,1,1,1.66,6.05,6.05,0,0,1,.36,2.11,6.4,6.4,0,0,1-.32,2,5.61,5.61,0,0,1-.92,1.72,4.49,4.49,0,0,1-1.45,1.2,4.12,4.12,0,0,1-1.94.45,5.38,5.38,0,0,1-1.83-.3,2.92,2.92,0,0,1-1.39-1h0v6.25l-3.16,0Zm2.88,5a2.63,2.63,0,0,0,.66,1.86,2.39,2.39,0,0,0,1.85.71,2.39,2.39,0,0,0,1.85-.71,3,3,0,0,0,0-3.72,2.4,2.4,0,0,0-1.85-.71,2.4,2.4,0,0,0-1.85.71A2.63,2.63,0,0,0,11.94,38.5Z"/></svg>